<svg width="38" height="28" viewBox="0 0 38 28" fill="none" xmlns="http://www.w3.org/2000/svg">
<path d="M0 0V1.45097V25.7824V27.2333H38V25.7824V1.45097V0H0ZM23.1958 13.9739L19.7467 17.4395C19.3274 17.829 18.6713 17.8283 18.2698 17.4559L14.8035 13.9739L14.8339 13.9441L2.30977 1.26667H35.6985L23.1654 13.9447L23.1958 13.9739ZM12.9985 13.9542L1.26667 25.2415V2.1679L12.9985 13.9542ZM13.8915 14.8517L17.3894 18.366C17.8385 18.7847 18.4148 18.9949 18.9937 18.9949C19.5782 18.9949 20.1653 18.7802 20.6283 18.3489L24.1091 14.8517L35.6592 25.9667H2.33447L13.8915 14.8517ZM25.0021 13.9549L36.7333 2.16727V25.2415L25.0021 13.9549Z" fill="#061C04"/>
</svg>
