<svg width="38" height="38" viewBox="0 0 38 38" fill="none" xmlns="http://www.w3.org/2000/svg">
<path d="M36.6993 27.5118L31.9667 22.7374C31.1844 21.9547 30.1284 21.4851 29.1506 21.4851C28.0945 21.4851 27.1558 21.9156 26.3345 22.7374L23.5966 25.4768C23.4792 25.3986 23.3228 25.3203 23.2054 25.2812C23.2054 25.2812 23.1663 25.2812 23.1663 25.242L23.1272 25.2029C22.7752 24.9681 22.3841 24.7333 21.9147 24.5376C19.5288 23.0505 17.2994 20.9763 15.0309 18.1977C13.9748 16.8671 13.2317 15.6931 12.645 14.4016C13.2708 13.8929 13.7402 13.3841 14.0922 12.9928L15.3047 11.7796C16.2434 10.9186 16.7127 9.94027 16.7127 8.92276C16.7127 7.86612 16.2434 6.88775 15.3438 5.94851L11.6281 2.23069C11.2761 1.87848 10.924 1.52626 10.5329 1.17405C9.75065 0.430484 8.77284 0 7.7559 0C6.62163 0 5.68293 0.391349 4.82245 1.25232L1.96722 4.10917C0.83295 5.16581 0.168033 6.4964 0.0115819 8.14006V8.1792C-0.0666436 10.2142 0.246257 12.0927 1.10674 14.4408C2.47568 18.1195 4.54866 21.5633 7.63857 25.3594C11.6672 29.8991 16.2043 33.4212 21.2498 35.8476L21.3671 35.8867C22.8534 36.552 25.6695 37.8043 28.7986 38H29.2288C31.3018 38 32.8663 37.3347 34.157 35.9258C34.6264 35.378 35.1348 34.8692 35.5651 34.3996C35.9171 34.1256 36.1518 33.8517 36.3864 33.5778L36.6993 33.2647L36.7776 33.1864C38.4203 31.3862 38.4203 29.1946 36.6993 27.5118ZM35.3304 31.8558L34.9393 32.2472L34.9001 32.3254C34.7046 32.5602 34.5481 32.7559 34.3526 32.9125L34.2352 33.0299C33.7659 33.4995 33.2183 34.0474 32.6707 34.6735C31.7711 35.6519 30.7542 36.0824 29.2288 36.0824H28.9159C26.178 35.8867 23.6748 34.7909 22.1885 34.1256L22.1103 34.0865C17.2994 31.7775 12.9579 28.4119 9.16396 24.1071C6.19139 20.5067 4.23576 17.2194 2.94504 13.7755C2.16278 11.6231 1.88899 10.0577 1.96722 8.2966C2.08456 7.16169 2.5148 6.26159 3.29705 5.55716L6.19139 2.66117C6.66075 2.19156 7.1301 1.99588 7.71679 1.99588C8.22526 1.99588 8.69461 2.23069 9.12485 2.62204L9.16396 2.66117C9.51598 2.97425 9.86799 3.32647 10.22 3.67868L13.9357 7.3965C14.6397 8.10093 14.7571 8.64882 14.7571 8.96189C14.7571 9.27497 14.6789 9.74459 13.9357 10.4099L12.6841 11.6622C12.2539 12.1318 11.7454 12.6406 11.0805 13.1885L11.0023 13.2667L10.924 13.3841C10.572 13.8538 10.5329 14.2842 10.7285 14.9104L10.7676 15.0669L10.8067 15.2235C11.4716 16.6715 12.293 18.0021 13.4664 19.4892C15.8914 22.4634 18.3163 24.6941 20.8978 26.2987L21.0151 26.3769C21.328 26.5335 21.6409 26.69 21.9147 26.8465C22.0321 26.964 22.1885 27.0422 22.3058 27.0814C22.4623 27.1596 22.5796 27.1988 22.6579 27.277L22.9316 27.4727H23.0099L23.1272 27.5118C23.3619 27.5901 23.5183 27.5901 23.6357 27.5901C24.0268 27.5901 24.3788 27.4336 24.7308 27.0814L27.6643 24.1462C28.1336 23.6766 28.5639 23.4809 29.1115 23.4809C29.6982 23.4809 30.2457 23.8332 30.5586 24.1462L35.3304 28.9207C36.2691 29.8599 36.3082 30.8383 35.3304 31.8558Z" fill="#061C04"/>
</svg>
