<svg width="32" height="32" viewBox="0 0 32 32" fill="none" xmlns="http://www.w3.org/2000/svg">
<path d="M15.8333 0C7.10758 0 0 7.10758 0 15.8333C0 24.5591 7.10758 31.6667 15.8333 31.6667C24.5591 31.6667 31.6667 24.5591 31.6667 15.8333C31.6667 7.10758 24.5591 0 15.8333 0ZM15.8333 3.16667C22.8477 3.16667 28.5 8.81897 28.5 15.8333C28.5 22.8477 22.8477 28.5 15.8333 28.5C8.81897 28.5 3.16667 22.8477 3.16667 15.8333C3.16667 8.81897 8.81897 3.16667 15.8333 3.16667ZM14.25 6.33333V16.4889L21.0472 23.2861L23.2861 21.0472L17.4167 15.1777V6.33333H14.25Z" fill="#061C04"/>
</svg>
