<svg width="32" height="44" viewBox="0 0 32 44" fill="none" xmlns="http://www.w3.org/2000/svg">
<path d="M16.1702 21.8333C19.2998 21.8333 21.8369 19.2963 21.8369 16.1667C21.8369 13.0371 19.2998 10.5 16.1702 10.5C13.0406 10.5 10.5035 13.0371 10.5035 16.1667C10.5035 19.2963 13.0406 21.8333 16.1702 21.8333Z" stroke="#061C04" stroke-width="3" stroke-linecap="round" stroke-linejoin="round"/>
<path d="M30.3369 16.1667C30.3788 18.5507 29.7716 20.9012 28.5802 22.9667C25.6902 27.7833 16.1702 41.6667 16.1702 41.6667C16.1702 41.6667 6.65023 27.7833 3.7319 22.995C2.54542 20.9185 1.94786 18.5576 2.00357 16.1667C2.00357 12.4094 3.49612 8.80609 6.15289 6.14932C8.80965 3.49256 12.413 2 16.1702 2C19.9275 2 23.5308 3.49256 26.1876 6.14932C28.8443 8.80609 30.3369 12.4094 30.3369 16.1667Z" stroke="#061C04" stroke-width="3" stroke-linecap="round" stroke-linejoin="round"/>
</svg>
